<svg xmlns="http://www.w3.org/2000/svg" viewBox="0 0 500 83" preserveAspectRatio="none">
    <path fill="#fff" d="M 11.892 56.86 C 7.514 56.86 3.432 55.598 0 53.421 L 0 0 L 500 0 L 500 17.007 C 497.539 20.852 493.281 23.394 488.443 23.394 C 487.986 23.394 487.533 23.371 487.087 23.327 C 487.133 23.847 487.157 24.376 487.157 24.912 C 487.157 32.528 482.299 38.701 476.304 38.701 C 475.328 38.701 474.381 38.537 473.482 38.231 C 470.26 46.48 463.281 52.194 455.191 52.194 C 447.26 52.194 440.396 46.701 437.094 38.711 C 435.136 40.681 432.534 41.883 429.68 41.883 C 423.794 41.883 418.983 36.772 418.667 30.337 C 417.742 30.551 416.784 30.664 415.804 30.664 C 407.85 30.664 401.401 23.235 401.394 14.067 C 397.969 13.519 394.983 11.287 393.017 8.08 C 392.034 8.158 391.04 8.199 390.038 8.199 C 388.666 8.199 387.312 8.124 385.978 7.979 C 386.12 8.695 386.196 9.437 386.196 10.198 C 386.196 15.624 382.368 20.131 377.335 21.024 C 377.352 21.459 377.361 21.897 377.361 22.337 C 377.361 39.336 364.274 53.118 348.13 53.118 C 342.365 53.118 336.992 51.362 332.464 48.329 C 328.213 60.468 317.113 69.126 304.087 69.126 C 294.81 69.126 286.509 64.734 280.964 57.82 C 277.784 63.884 272.335 67.884 266.147 67.884 C 259.358 67.884 253.457 63.071 250.469 55.999 C 249.719 56.17 248.941 56.261 248.142 56.261 C 242.137 56.261 237.269 51.135 237.269 44.813 C 237.269 44.216 237.312 43.629 237.396 43.057 C 235.877 42.787 234.443 42.26 233.137 41.519 C 229.748 43.894 225.705 45.273 221.364 45.273 C 215.782 45.273 210.692 42.993 206.852 39.247 C 204.517 43.571 199.946 46.51 194.689 46.51 C 194.4 46.51 194.114 46.501 193.828 46.483 C 192.548 51.668 187.863 55.512 182.279 55.512 C 182.213 55.512 182.146 55.511 182.08 55.51 C 182.233 56.655 182.313 57.826 182.313 59.017 C 182.313 72.249 172.523 82.977 160.449 82.977 C 148.469 82.977 138.739 72.417 138.587 59.328 C 138.139 59.43 137.674 59.484 137.201 59.484 C 135.504 59.484 133.943 58.796 132.711 57.644 C 130.002 61.758 125.602 64.436 120.634 64.436 C 112.402 64.436 105.73 57.086 105.73 48.021 C 105.73 46.467 105.925 44.963 106.292 43.538 C 103.524 46.427 99.384 48.261 94.756 48.261 C 90.559 48.261 86.762 46.752 84.027 44.315 C 82.895 52.326 77.073 58.429 70.062 58.429 C 65.289 58.429 61.067 55.601 58.5 51.269 C 55.525 56.326 50.385 59.667 44.542 59.667 C 37.694 59.667 31.812 55.078 29.248 48.515 C 25.204 53.598 18.934 56.86 11.892 56.86 Z"></path>
</svg>