<?xml version="1.0" standalone="no"?>
<!DOCTYPE svg PUBLIC "-//W3C//DTD SVG 20010904//EN"
 "http://www.w3.org/TR/2001/REC-SVG-20010904/DTD/svg10.dtd">
<svg version="1.0" xmlns="http://www.w3.org/2000/svg"
 width="588.000000pt" height="588.000000pt" viewBox="0 0 588.000000 588.000000"
 preserveAspectRatio="xMidYMid meet">

<g transform="translate(0.000000,588.000000) scale(0.100000,-0.100000)"
fill="#000000" stroke="none">
<path d="M2876 5089 c-14 -11 -56 -65 -92 -120 -88 -132 -161 -203 -264 -259
-94 -51 -121 -61 -240 -96 -115 -34 -326 -43 -832 -36 -346 4 -403 3 -478 -12
-151 -31 -267 -103 -311 -193 -19 -39 -23 -64 -23 -133 1 -81 5 -110 40 -258
52 -217 158 -425 321 -625 150 -184 246 -250 436 -295 108 -26 122 -27 402
-27 255 0 297 2 350 19 87 27 179 78 265 146 88 71 114 80 237 87 166 9 280
-22 510 -142 189 -98 251 -115 463 -122 197 -7 326 6 500 49 141 35 222 68
312 129 350 235 538 463 626 754 53 176 74 316 73 482 0 145 -9 192 -44 244
-51 77 -137 82 -407 25 -214 -45 -379 -61 -504 -47 -168 19 -239 45 -561 207
-392 197 -524 244 -684 244 -54 0 -74 -4 -95 -21z m269 -163 c94 -23 240 -89
618 -284 216 -111 364 -147 597 -146 135 1 174 5 300 33 80 17 187 39 238 48
127 24 124 26 124 -153 -1 -215 -54 -433 -149 -618 -42 -80 -64 -108 -188
-231 -207 -207 -358 -301 -560 -348 -161 -38 -252 -49 -395 -49 -215 0 -295
18 -455 103 -253 134 -435 181 -629 164 -133 -12 -187 -36 -309 -137 -105 -87
-179 -112 -379 -128 -213 -18 -508 20 -634 80 -161 78 -383 381 -473 645 -48
143 -74 286 -53 299 4 2 43 -6 87 -19 464 -134 1108 -155 1433 -46 150 50 370
185 465 285 91 95 186 257 236 401 17 50 33 96 36 103 6 15 16 15 90 -2z
m-453 -373 c-67 -93 -291 -231 -444 -273 -240 -65 -746 -68 -1081 -5 -165 31
-267 61 -267 80 0 39 582 72 810 45 189 -23 500 -5 650 36 75 20 246 89 295
118 53 32 60 31 37 -1z"/>
<path d="M1472 2733 c-13 -2 -26 -11 -29 -19 -6 -16 79 -139 107 -154 10 -5
52 -10 92 -10 82 0 81 -1 156 97 49 63 39 93 -31 93 -32 0 -44 -6 -74 -40 -45
-50 -72 -51 -110 -5 -28 36 -64 48 -111 38z"/>
<path d="M4168 2713 c-9 -10 -29 -43 -46 -73 -41 -73 -32 -90 43 -90 51 0 57
3 111 53 67 62 67 78 2 107 -54 24 -90 25 -110 3z"/>
<path d="M342 2448 c-15 -15 -17 -804 -2 -828 7 -12 41 -16 171 -18 181 -4
305 9 382 39 54 21 130 77 170 125 97 116 115 315 42 467 -25 53 -99 133 -152
164 -89 52 -157 63 -388 63 -151 0 -214 -3 -223 -12z m476 -185 c63 -38 108
-106 116 -176 17 -132 -29 -240 -123 -289 -48 -25 -64 -28 -151 -28 -71 0
-101 4 -109 14 -8 9 -11 86 -9 257 l3 243 25 8 c14 4 65 6 113 4 76 -3 94 -7
135 -33z"/>
<path d="M1298 2454 c-13 -12 -10 -832 3 -840 20 -12 134 -16 162 -5 27 10 27
11 27 109 0 126 5 132 113 132 l75 0 52 -102 c29 -57 60 -112 70 -122 21 -22
106 -33 165 -22 30 6 35 11 35 35 0 16 -10 43 -23 62 -97 145 -105 178 -56
225 131 125 130 366 -2 465 -77 58 -104 63 -369 67 -135 2 -248 0 -252 -4z
m427 -164 c24 -5 51 -21 68 -40 23 -26 27 -39 27 -94 0 -56 -3 -68 -28 -94
-35 -37 -86 -52 -182 -52 -115 0 -120 5 -120 142 0 144 3 148 114 148 45 0 99
-5 121 -10z"/>
<path d="M2190 2441 c-16 -30 -14 -792 3 -813 10 -15 49 -17 317 -19 168 -2
315 1 327 5 15 5 24 18 29 41 7 37 -2 92 -17 101 -5 3 -104 7 -220 8 -147 2
-214 7 -222 15 -13 13 -17 144 -5 157 17 16 120 24 239 18 120 -7 127 -6 148
15 23 23 28 72 11 115 l-10 26 -178 0 c-220 0 -218 -1 -215 100 1 40 5 75 8
79 4 3 99 7 213 9 126 2 211 7 219 14 17 13 17 120 1 136 -9 9 -95 12 -325 12
-299 0 -313 -1 -323 -19z"/>
<path d="M2967 2453 c-15 -15 -3 -57 69 -243 79 -202 113 -289 184 -472 25
-65 50 -114 63 -123 25 -18 153 -21 189 -4 13 5 29 22 34 37 25 62 104 263
134 342 18 47 38 99 45 115 7 17 24 60 39 98 14 37 38 96 52 132 14 36 24 77
22 92 -3 28 -4 28 -84 31 -68 2 -83 0 -97 -16 -16 -18 -87 -208 -147 -395 -35
-109 -53 -137 -85 -137 -30 0 -46 23 -75 110 -12 36 -25 74 -30 85 -5 11 -32
87 -59 170 -28 82 -57 158 -66 167 -12 15 -31 18 -98 18 -46 0 -87 -3 -90 -7z"/>
<path d="M4057 2448 c-9 -7 -43 -76 -75 -154 -33 -77 -69 -160 -80 -185 -11
-24 -41 -93 -67 -154 -25 -60 -67 -158 -92 -217 -57 -133 -55 -138 57 -138 89
0 100 8 126 83 25 74 33 77 231 77 196 0 202 -2 223 -80 18 -68 38 -80 130
-80 118 0 121 14 44 185 -12 28 -43 102 -69 165 -26 63 -55 133 -65 155 -9 22
-34 81 -55 130 -73 174 -88 206 -106 215 -26 15 -182 12 -202 -2z m148 -314
c28 -59 61 -168 57 -186 -5 -24 -32 -29 -127 -26 l-80 3 -3 33 c-2 19 10 66
28 115 40 104 35 97 74 97 29 0 36 -5 51 -36z"/>
<path d="M4716 2444 c-9 -8 -16 -19 -16 -24 0 -4 56 -70 125 -146 69 -77 128
-149 131 -162 6 -21 -71 -147 -232 -380 -50 -73 -63 -110 -43 -123 8 -5 54 -9
102 -9 101 0 108 4 174 114 82 135 141 206 172 206 14 0 72 -54 91 -85 16 -26
20 -50 20 -123 0 -80 2 -93 19 -102 24 -12 121 -13 153 -1 l24 9 3 410 c2 473
12 432 -102 432 -93 0 -97 -7 -97 -158 0 -96 -3 -124 -16 -136 -36 -37 -44
-31 -243 192 l-92 102 -79 0 c-58 0 -83 -4 -94 -16z"/>
<path d="M332 1260 c-72 -17 -97 -83 -48 -129 l24 -22 2598 6 c1430 3 2609 8
2621 11 28 5 46 56 32 87 -25 56 159 52 -2624 54 -1414 0 -2585 -2 -2603 -7z"/>
</g>
</svg>
