<svg xmlns="http://www.w3.org/2000/svg" xmlns:xlink="http://www.w3.org/1999/xlink" xlink:href="data:image/png;base64" width="140" height="180">
    <path stroke-width="0" d="M 19.103 44.653 C 21.296 44.162 24.596 43.912 27.168 44.653 C 29.861 45.429 32.803 47.264 34.866 49.418 C 36.985 51.631 37.039 56.778 39.631 57.849 C 42.53 59.047 48.335 54.199 52.095 54.917 C 55.771 55.618 58.189 57.948 61.992 61.882 C 67.96 68.054 77.323 85.188 83.62 92.307 C 88.117 97.392 91.896 97.787 95.714 102.934 C 98.586 103.199 102.054 104.017 104.088 105.066 C 106.306 106.209 107.541 107.588 108.854 109.831 C 110.522 112.683 110.453 118.01 112.519 121.561 C 114.664 125.247 118.921 128.749 121.684 131.459 C 123.959 133.691 126.151 133.865 127.915 136.957 C 130.588 141.642 134.5 153.94 133.78 159.685 C 133.235 164.032 130.643 167.55 127.549 169.582 C 124.283 171.726 117.997 172.444 114.352 171.781 C 112.697 171.48 111.318 170.906 110.023 170.035 C 108.476 170.252 106.953 170.271 105.614 170.02 C 101.581 169.264 97.639 165.446 94.25 162.322 C 90.776 159.12 89.232 152.795 85.086 150.958 C 80.691 149.011 73.639 152.446 68.224 151.691 C 62.893 150.949 57.141 149.088 52.828 146.559 C 48.822 144.21 47.002 143.321 42.93 137.395 C 34.644 125.336 12.128 76.785 8.473 65.547 C 7.063 61.211 7.068 60.9 7.74 58.216 C 8.59 54.814 12.465 49.027 14.704 46.852 C 16.208 45.393 17.304 45.056 19.103 44.653 Z" style="stroke-width: 2px; fill: rgb(217, 164, 120);"></path>
    <image xlink:href="first_bottle_cutout.png" width="57.191" height="177.8" x="191.495" y="65.473" style="" transform="matrix(0.957104, -0.289746, 0.289746, 0.957104, -194.166336, 9.391188)"></image>
</svg>